<svg id="visual" viewBox="0 0 1920 1080" width="1920" height="1080" xmlns="http://www.w3.org/2000/svg" xmlns:xlink="http://www.w3.org/1999/xlink" version="1.1"><rect x="0" y="0" width="1920" height="1080" fill="#dfe3e6"></rect><path d="M0 671L45.7 686.2C91.3 701.3 182.7 731.7 274.2 734C365.7 736.3 457.3 710.7 548.8 691.8C640.3 673 731.7 661 823 655.5C914.3 650 1005.7 651 1097 648.3C1188.3 645.7 1279.7 639.3 1371.2 641.3C1462.7 643.3 1554.3 653.7 1645.8 681.7C1737.3 709.7 1828.7 755.3 1874.3 778.2L1920 801L1920 1081L1874.3 1081C1828.7 1081 1737.3 1081 1645.8 1081C1554.3 1081 1462.7 1081 1371.2 1081C1279.7 1081 1188.3 1081 1097 1081C1005.7 1081 914.3 1081 823 1081C731.7 1081 640.3 1081 548.8 1081C457.3 1081 365.7 1081 274.2 1081C182.7 1081 91.3 1081 45.7 1081L0 1081Z" fill="#faaf69"></path><path d="M0 805L45.7 791.5C91.3 778 182.7 751 274.2 759C365.7 767 457.3 810 548.8 819.8C640.3 829.7 731.7 806.3 823 807.7C914.3 809 1005.7 835 1097 844.8C1188.3 854.7 1279.7 848.3 1371.2 827.5C1462.7 806.7 1554.3 771.3 1645.8 759.8C1737.3 748.3 1828.7 760.7 1874.3 766.8L1920 773L1920 1081L1874.3 1081C1828.7 1081 1737.3 1081 1645.8 1081C1554.3 1081 1462.7 1081 1371.2 1081C1279.7 1081 1188.3 1081 1097 1081C1005.7 1081 914.3 1081 823 1081C731.7 1081 640.3 1081 548.8 1081C457.3 1081 365.7 1081 274.2 1081C182.7 1081 91.3 1081 45.7 1081L0 1081Z" fill="#ee9b57"></path><path d="M0 853L45.7 844.7C91.3 836.3 182.7 819.7 274.2 814.3C365.7 809 457.3 815 548.8 833.3C640.3 851.7 731.7 882.3 823 888.2C914.3 894 1005.7 875 1097 870.2C1188.3 865.3 1279.7 874.7 1371.2 876.8C1462.7 879 1554.3 874 1645.8 877.8C1737.3 881.7 1828.7 894.3 1874.3 900.7L1920 907L1920 1081L1874.3 1081C1828.7 1081 1737.3 1081 1645.8 1081C1554.3 1081 1462.7 1081 1371.2 1081C1279.7 1081 1188.3 1081 1097 1081C1005.7 1081 914.3 1081 823 1081C731.7 1081 640.3 1081 548.8 1081C457.3 1081 365.7 1081 274.2 1081C182.7 1081 91.3 1081 45.7 1081L0 1081Z" fill="#e18745"></path><path d="M0 935L45.7 927.3C91.3 919.7 182.7 904.3 274.2 893.2C365.7 882 457.3 875 548.8 881.7C640.3 888.3 731.7 908.7 823 919.2C914.3 929.7 1005.7 930.3 1097 925.5C1188.3 920.7 1279.7 910.3 1371.2 910C1462.7 909.7 1554.3 919.3 1645.8 917.5C1737.3 915.7 1828.7 902.3 1874.3 895.7L1920 889L1920 1081L1874.3 1081C1828.7 1081 1737.3 1081 1645.8 1081C1554.3 1081 1462.7 1081 1371.2 1081C1279.7 1081 1188.3 1081 1097 1081C1005.7 1081 914.3 1081 823 1081C731.7 1081 640.3 1081 548.8 1081C457.3 1081 365.7 1081 274.2 1081C182.7 1081 91.3 1081 45.7 1081L0 1081Z" fill="#d47334"></path><path d="M0 998L45.7 993.8C91.3 989.7 182.7 981.3 274.2 973.5C365.7 965.7 457.3 958.3 548.8 962.5C640.3 966.7 731.7 982.3 823 984.2C914.3 986 1005.7 974 1097 967.8C1188.3 961.7 1279.7 961.3 1371.2 958.5C1462.7 955.7 1554.3 950.3 1645.8 959.8C1737.3 969.3 1828.7 993.7 1874.3 1005.8L1920 1018L1920 1081L1874.3 1081C1828.7 1081 1737.3 1081 1645.8 1081C1554.3 1081 1462.7 1081 1371.2 1081C1279.7 1081 1188.3 1081 1097 1081C1005.7 1081 914.3 1081 823 1081C731.7 1081 640.3 1081 548.8 1081C457.3 1081 365.7 1081 274.2 1081C182.7 1081 91.3 1081 45.7 1081L0 1081Z" fill="#c75f24"></path></svg>